<svg xmlns="http://www.w3.org/2000/svg" version="1.1" x="0" y="0" width="479.2" height="479.2" viewBox="0 0 479.2 479.2" xml:space="preserve"><path d="M441.4 353.8c12.2-25 19.8-52.6 21.8-81.8h-64.8c-1.7 17.4-6.7 33.8-13.6 49.1L441.4 353.8zM369 349c-10 14-22.2 26-36 36.1l32.4 56.3c23.5-16 43.8-36.4 59.8-59.9L369 349zM305.5 401.3c-15.3 7-31.9 11.4-49.4 13.2v64.8c29.2-2.1 56.8-9.7 81.8-21.9L305.5 401.3zM224 414.4c-80.6-8.2-144-75.6-144-158.4 0-53.4 26.5-100.4 66.8-129.5l-32.3-56C55.1 110.8 16 178.8 16 256c0 118.3 91.8 215 208 223.2v-64.8H224z"/><path d="M399 240h64c-2.1-29.2-9.6-56.7-21.8-81.7l-55.7 32.2C392.5 205.8 397.3 222.4 399 240zM369.4 162.8l55.9-32.2c-16-23.6-36.2-44.1-59.7-60.1l-32.3 56C347.2 136.6 359.3 148.9 369.4 162.8z"/><rect x="208" width="64" height="192"/></svg>