<svg xmlns="http://www.w3.org/2000/svg" version="1.1" x="0" y="0" width="512" height="512" viewBox="0 0 512 512" enable-background="new 0 0 512 512" xml:space="preserve"><path d="M256 65.3c11.4 0 22.5 1 33.3 2.9L316.9 0l73.2 29.6L362.5 97.7c20.4 13.8 38 31.4 51.8 51.8l68.2-27.5L512 195.1l-68.2 27.5c1.9 10.8 2.9 22 2.9 33.3s-1 22.5-2.9 33.3L512 316.9l-29.6 73.2 -68.2-27.5c-12.5 18.6-28.2 34.8-46.3 47.9l29.9 67.2 -72.1 32.1 -29.9-67.2c-12.9 2.7-26.2 4.2-39.9 4.2 -11.4 0-22.5-1-33.3-2.9L195.1 512l-73.2-29.6 27.5-68.2c-20.4-13.8-38-31.4-51.8-51.8l-68.2 27.5L0 316.9l68.2-27.5c-1.9-10.8-2.9-22-2.9-33.3s1-22.5 2.9-33.3L0 195.1l29.6-73.2 68.2 27.5c12.5-18.6 28.2-34.8 46.3-47.9l-29.9-67.2 72.1-32.1 29.9 67.2C229 66.7 242.3 65.3 256 65.3zM256 124.5c-72.6 0-131.5 58.9-131.5 131.5 0 72.7 58.9 131.5 131.5 131.5 72.7 0 131.5-58.9 131.5-131.5C387.5 183.4 328.7 124.5 256 124.5z"/></svg>